<svg width="15" height="15" viewBox="0 0 15 15" fill="none" xmlns="http://www.w3.org/2000/svg">
<path d="M3.40909 0C2.28516 0 1.36364 0.844726 1.36364 1.875V2.5H0V3.75H2.72727V1.875C2.72727 1.52344 3.02557 1.25 3.40909 1.25H12.9545C13.3381 1.25 13.6364 1.52344 13.6364 1.875V13.125C13.6364 13.4766 13.3381 13.75 12.9545 13.75H3.40909C3.02557 13.75 2.72727 13.4766 2.72727 13.125V12.5H1.36364V13.125C1.36364 14.1553 2.28516 15 3.40909 15H12.9545C14.0785 15 15 14.1553 15 13.125V1.875C15 0.844726 14.0785 0 12.9545 0H3.40909ZM8.18182 3.75C6.68501 3.75 5.45455 4.87793 5.45455 6.25C5.45455 6.91895 5.75284 7.5293 6.22159 7.97852C4.95916 8.61816 4.09091 9.83887 4.09091 11.25H5.45455C5.45455 9.86328 6.66903 8.75 8.18182 8.75C9.6946 8.75 10.9091 9.86328 10.9091 11.25H12.2727C12.2727 9.83887 11.4045 8.61816 10.142 7.97852C10.6108 7.5293 10.9091 6.91895 10.9091 6.25C10.9091 4.87793 9.67862 3.75 8.18182 3.75ZM1.36364 5V6.25H0V7.5H2.72727V5H1.36364ZM8.18182 5C8.94354 5 9.54545 5.55176 9.54545 6.25C9.54545 6.94824 8.94354 7.5 8.18182 7.5C7.4201 7.5 6.81818 6.94824 6.81818 6.25C6.81818 5.55176 7.4201 5 8.18182 5ZM1.36364 8.75V10H0V11.25H2.72727V8.75H1.36364Z" fill="white"/>
</svg>
