<svg width="100" height="105" viewBox="0 0 100 105" fill="none" xmlns="http://www.w3.org/2000/svg">
<path d="M16.6667 81.8633L27.9688 6.64305C28.1251 5.44908 29.2188 4.63501 30.3647 4.85209C30.9897 4.96064 31.5626 5.39481 31.8751 5.99179L43.5417 28.6773L48.1772 19.4511C48.698 18.3657 49.948 17.9858 50.9897 18.5285C51.3542 18.7456 51.6667 19.0712 51.8751 19.4511L83.3334 81.8633H16.6667Z" fill="#FFA000"/>
<path d="M55.6772 52.5568L43.5417 28.623L16.6667 81.8634L55.6772 52.5568Z" fill="#F57C00"/>
<path d="M83.3334 81.8634L74.6876 26.1266C74.4792 24.9326 73.4376 24.1728 72.2917 24.3356C71.8751 24.3899 71.4584 24.607 71.1459 24.9326L16.6667 81.8634L46.823 99.5016C48.698 100.587 51.0417 100.587 52.9167 99.5016L83.3334 81.8634Z" fill="#FFCA28"/>
<path d="M74.7396 26.1808C74.5313 24.9868 73.4896 24.227 72.3438 24.3898C71.9271 24.4441 71.5105 24.6612 71.198 24.9868L60.3646 36.2753L51.875 19.3969C51.3542 18.3114 50.1042 17.9315 49.0625 18.4742C48.698 18.6913 48.3855 19.017 48.1771 19.3969L43.5417 28.623L31.875 5.93753C31.3542 4.90637 30.0521 4.4722 29.0625 5.06919C28.4896 5.39482 28.073 5.9918 27.9688 6.64306L16.6667 81.8633H16.6146L16.6667 81.9176L16.9792 82.0804L60.3646 36.818L71.198 25.5295C72.0313 24.6612 73.3334 24.6612 74.1667 25.5295C74.4792 25.8552 74.6875 26.2351 74.7396 26.7235L83.2813 81.9176L83.3855 81.8633L74.7396 26.1808ZM16.7709 81.7548L27.9688 7.18578C28.125 5.9918 29.2188 5.17773 30.3646 5.39482C30.9896 5.50336 31.5625 5.93753 31.875 6.53452L43.5417 29.22L48.1771 19.9938C48.698 18.9084 49.948 18.5285 50.9896 19.0712C51.3542 19.2883 51.6667 19.6139 51.875 19.9938L60.2084 36.4924L16.7709 81.7548Z" fill="white" fill-opacity="0.2"/>
</svg>
