<svg width="15" height="16" viewBox="0 0 15 16" fill="none" xmlns="http://www.w3.org/2000/svg">
<path d="M9.56873 6.31331C11.3191 8.08145 11.2951 10.9162 9.57927 12.6573C9.57605 12.6608 9.57224 12.6647 9.56873 12.6682L7.59998 14.6548C5.86355 16.4071 3.03848 16.4068 1.30232 14.6548C-0.434107 12.9029 -0.434107 10.0519 1.30232 8.29995L2.38941 7.20298C2.67769 6.91208 3.17416 7.10542 3.18904 7.51653C3.20802 8.04045 3.30113 8.56682 3.47293 9.07513C3.53111 9.24724 3.48954 9.43763 3.3621 9.56623L2.97869 9.95312C2.15761 10.7817 2.13186 12.1307 2.94485 12.9674C3.76587 13.8123 5.11534 13.8173 5.94265 12.9825L7.9114 10.9961C8.73731 10.1627 8.73385 8.81562 7.9114 7.98569C7.80298 7.87649 7.69376 7.79164 7.60844 7.73237C7.54809 7.69055 7.49826 7.63507 7.46292 7.57037C7.42758 7.50566 7.40772 7.43352 7.40492 7.35969C7.39332 7.0473 7.503 6.72539 7.74763 6.47854L8.36445 5.85608C8.5262 5.69287 8.77994 5.67282 8.9675 5.80491C9.18229 5.95626 9.38348 6.12638 9.56873 6.31331ZM13.6977 2.14662C11.9615 0.394646 9.13645 0.394409 7.40003 2.14662L5.43128 4.13326C5.42776 4.13681 5.42395 4.14065 5.42073 4.1442C3.70493 5.88523 3.68087 8.72001 5.43128 10.4882C5.61651 10.6751 5.81769 10.8452 6.03248 10.9965C6.22004 11.1286 6.47381 11.1085 6.63552 10.9454L7.25234 10.3229C7.49697 10.076 7.60666 9.75413 7.59506 9.44174C7.59225 9.36791 7.57239 9.29577 7.53705 9.23107C7.50172 9.16636 7.45188 9.11089 7.39153 9.06907C7.30622 9.00979 7.197 8.92495 7.08857 8.81574C6.26612 7.98581 6.26266 6.63874 7.08857 5.80532L9.05732 3.81898C9.88464 2.98414 11.2341 2.98917 12.0551 3.83405C12.8681 4.67069 12.8424 6.01977 12.0213 6.84831L11.6379 7.2352C11.5104 7.3638 11.4689 7.55419 11.527 7.72631C11.6988 8.23462 11.792 8.76099 11.8109 9.28491C11.8258 9.69601 12.3223 9.88935 12.6106 9.59845L13.6977 8.50148C15.4341 6.7496 15.4341 3.89853 13.6977 2.14662Z" fill="white"/>
</svg>
