<svg width="108" height="86" viewBox="0 0 108 86" fill="none" xmlns="http://www.w3.org/2000/svg">
<path d="M92.9965 49.1441C89.2287 49.1647 85.954 50.1103 83.2121 51.5082C82.206 49.4319 81.1999 47.5818 81.0224 46.225C80.8251 44.6421 80.5884 43.676 80.8251 41.7847C81.0619 39.8935 82.1271 37.2005 82.1074 36.9949C82.0876 36.7894 81.8706 35.8232 79.7007 35.8026C77.5308 35.7821 75.6568 36.2343 75.4398 36.8305C75.2228 37.4266 74.8085 38.7834 74.5323 40.1813C74.1575 42.237 70.1925 49.5758 67.9239 53.42C67.194 51.9193 66.5628 50.6037 66.4247 49.5553C66.2274 47.9724 65.9907 47.0062 66.2274 45.1149C66.4642 43.2237 67.5294 40.5307 67.5097 40.3252C67.4899 40.1196 67.2729 39.1534 65.103 39.1329C62.9331 39.1123 61.0591 39.5646 60.8421 40.1607C60.6251 40.7569 60.3884 42.1547 59.9346 43.5115C59.4809 44.8683 54.2139 57.1202 52.8331 60.286C52.1229 61.91 51.5114 63.2051 51.0774 64.0891C51.0774 64.0891 51.0577 64.1507 50.9985 64.2535C50.6237 65.0141 50.4067 65.4253 50.4067 65.4253C50.4067 65.4253 50.4067 65.4253 50.4067 65.4458C50.1108 66.0009 49.7952 66.5148 49.6373 66.5148C49.519 66.5148 49.302 65.0347 49.6768 63.0201C50.4659 58.7648 52.3399 52.1454 52.3202 51.9193C52.3202 51.796 52.6752 50.6448 51.0971 50.0486C49.5584 49.4525 49.0061 50.4392 48.868 50.4392C48.7299 50.4392 48.6313 50.7887 48.6313 50.7887C48.6313 50.7887 50.3475 43.347 45.3567 43.347C42.2399 43.347 37.9395 46.9034 35.809 50.1103C34.4676 50.8709 31.6072 52.4949 28.5496 54.2423C27.3857 54.9206 26.1824 55.599 25.058 56.2363C24.9791 56.1541 24.9002 56.0513 24.8213 55.9691C18.7849 49.2469 7.61965 44.4982 8.09309 35.4737C8.27063 32.1846 9.35559 23.5506 29.5359 13.0666C46.1457 4.5354 59.3626 6.89946 61.6509 12.1415C64.9255 19.6242 54.569 33.5208 37.4068 35.5354C30.8576 36.296 27.4252 33.6647 26.5572 32.678C25.6498 31.6501 25.5117 31.5884 25.1763 31.794C24.624 32.1024 24.9791 33.0274 25.1763 33.5619C25.6892 34.9598 27.8 37.4266 31.3705 38.6395C34.5268 39.7085 42.2004 40.3046 51.4916 36.5632C61.8876 32.3696 70.0149 20.7138 67.628 10.9492C65.2411 1.04071 49.4598 -2.22786 34.5268 3.30198C25.6498 6.5911 16.0232 11.7715 9.09914 18.5142C0.873143 26.5314 -0.428813 33.5002 0.103805 36.4193C2.01729 46.7801 15.7273 53.5228 21.2113 58.5181C20.9351 58.6826 20.6787 58.8265 20.4617 58.9498C17.7197 60.3683 7.26457 66.0625 4.66065 72.0857C1.70166 78.9107 5.13409 83.8032 7.40265 84.4611C14.4451 86.4962 21.6847 82.8371 25.5709 76.7933C29.457 70.7495 28.9836 62.8968 27.1885 59.2993C27.1687 59.2582 27.149 59.2171 27.1095 59.1759C27.8197 58.7442 28.5496 58.292 29.2597 57.8603C30.6603 56.9969 32.0412 56.1952 33.2248 55.5374C32.5541 57.4492 32.0609 59.731 31.8242 63.0201C31.5283 66.8848 33.0473 71.9007 35.0396 73.8742C35.9273 74.7376 36.9729 74.7582 37.6436 74.7582C39.9713 74.7582 41.0168 72.7436 42.1807 70.359C43.601 67.4399 44.8832 64.048 44.8832 64.048C44.8832 64.048 43.2854 73.2164 47.6252 73.2164C49.2034 73.2164 50.8012 71.0785 51.5114 69.9889C51.5114 70.0095 51.5114 70.0095 51.5114 70.0095C51.5114 70.0095 51.5508 69.9478 51.6297 69.8039C51.7875 69.5367 51.8862 69.3722 51.8862 69.3722C51.8862 69.3722 51.8862 69.3517 51.8862 69.3311C52.5174 68.1799 53.9377 65.5692 56.0485 61.2316C58.7708 55.6401 61.3944 48.6508 61.3944 48.6508C61.3944 48.6508 61.6311 50.357 62.4399 53.1939C62.9134 54.859 63.8997 56.6885 64.6888 58.4564C64.0575 59.3815 63.663 59.8954 63.663 59.8954C63.663 59.8954 63.663 59.8954 63.6827 59.916C63.1698 60.6149 62.6175 61.3755 62.0059 62.1156C59.8557 64.788 57.2913 67.851 56.9362 68.735C56.5219 69.7834 56.6206 70.544 57.4096 71.1607C57.9817 71.6129 59.0075 71.6746 60.053 71.6129C61.9862 71.469 63.3473 70.9757 64.0181 70.6673C65.0636 70.2767 66.2866 69.6806 67.4308 68.7966C69.5415 67.1726 70.8237 64.8497 70.7054 61.7867C70.6462 60.101 70.1136 58.4153 69.4626 56.8324C69.6599 56.5446 69.8374 56.2569 70.0347 55.9691C73.3685 50.8915 75.9527 45.3205 75.9527 45.3205C75.9527 45.3205 76.1894 47.0268 76.9982 49.8636C77.3927 51.3026 78.2015 52.8649 78.9116 54.3862C75.7751 57.038 73.8419 60.1216 73.1515 62.1362C71.9087 65.8775 72.8753 67.5632 74.7099 67.9538C75.5384 68.1388 76.722 67.7277 77.59 67.3371C78.6946 66.967 79.9966 66.3298 81.2394 65.3842C83.3501 63.7602 85.382 61.4989 85.2636 58.4359C85.2044 57.038 84.8494 55.6607 84.3562 54.3245C87.0193 53.1733 90.4517 52.536 94.831 53.0705C104.221 54.2217 106.075 60.3271 105.72 62.8968C105.365 65.4664 103.392 66.8643 102.741 67.296C102.09 67.7277 101.873 67.8716 101.933 68.1799C102.012 68.6322 102.327 68.6116 102.879 68.5294C103.649 68.3855 107.811 66.4531 107.989 61.725C108.285 55.6813 102.761 49.0825 92.9965 49.1441ZM20.5603 74.5937C17.4435 78.1295 13.1036 79.4657 11.2296 78.3351C9.2175 77.1222 10.0066 71.9007 13.8335 68.1594C16.1613 65.8775 19.1597 63.7602 21.1521 62.4651C21.6058 62.1773 22.2765 61.7661 23.0853 61.2522C23.2234 61.17 23.3023 61.1289 23.3023 61.1289C23.4601 61.0261 23.6179 60.9233 23.7757 60.8205C25.1763 66.1653 23.8349 70.8729 20.5603 74.5937ZM43.2459 58.5181C42.161 61.2728 39.8924 68.3238 38.5115 67.9332C37.3279 67.6043 36.598 62.2595 38.2748 56.9763C39.1231 54.3245 40.9182 51.1587 41.9637 49.9253C43.6602 47.9518 45.5342 47.294 45.9879 48.0957C46.56 49.1441 43.9166 56.7913 43.2459 58.5181ZM61.9665 67.851C61.5128 68.0977 61.0788 68.2621 60.8815 68.1388C60.7434 68.0566 61.0788 67.7277 61.0788 67.7277C61.0788 67.7277 63.4263 65.0964 64.3534 63.9041C64.886 63.2051 65.5173 62.3828 66.188 61.4578C66.188 61.54 66.188 61.6428 66.188 61.725C66.188 64.8702 63.2684 66.9876 61.9665 67.851ZM76.4064 64.418C76.071 64.1713 76.1302 63.349 77.2546 60.7794C77.6886 59.7721 78.7144 58.0864 80.47 56.4624C80.6673 57.1202 80.8054 57.7575 80.7857 58.3537C80.766 62.3212 78.0437 63.8013 76.4064 64.418Z" fill="#CD6799"/>
</svg>
