<svg width="79" height="45" viewBox="0 0 79 45" fill="none" xmlns="http://www.w3.org/2000/svg">
<circle cx="40" cy="22" r="13" stroke="#AF70FF" stroke-width="4"/>
<rect x="41" width="6" height="35" transform="rotate(30 41 0)" fill="#FFDF39"/>
<rect x="52.5" y="11" width="6" height="35" transform="rotate(30 52.5 11)" fill="#FF626D"/>
<rect x="31" y="3" width="35" height="6" transform="rotate(30 31 3)" fill="#00C9B9"/>
<rect x="21" y="15" width="35" height="6" transform="rotate(30 21 15)" fill="#52A7F4"/>
<path d="M14.955 7L0.376587 21.9972L0.379301 22L0.376587 22.0028L14.955 37L19.3766 32.4514L9.21702 22L19.3766 11.5486L14.955 7Z" fill="#0EC8B9"/>
<path d="M4.50724 17.3656L0 21.873L4.50739 26.3803L9.01463 21.8729L4.50724 17.3656Z" fill="#00AD84"/>
<path d="M79 21.4971L63.6543 6L59 10.7002L69.6943 21.5L59 32.2998L63.6543 37L79 21.5029L78.9971 21.5L79 21.4971Z" fill="#0EC8B9"/>
<path d="M74.3466 16.9528L69.6949 21.6046L74.3468 26.2563L78.9984 21.6045L74.3466 16.9528Z" fill="#00AD84"/>
</svg>
