<?xml version="1.0" encoding="iso-8859-1"?>
<svg version="1.1" id="Layer_1" xmlns="http://www.w3.org/2000/svg" xmlns:xlink="http://www.w3.org/1999/xlink" x="0px" y="0px"
	 viewBox="0 0 502.003 502.003" style="enable-background:new 0 0 502.003 502.003;" xml:space="preserve">
	<path style="fill:#4FC497;" d="M398.767,279.009c0,81.609-66.157,147.766-147.766,147.766s-147.766-66.157-147.766-147.766
		C103.236,109.521,371.108,10,371.108,10S398.767,197.401,398.767,279.009z"/>
	<path style="fill:#333333;" d="M408.767,279.009c0-81.406-26.632-262.788-27.766-270.469c-0.44-2.984-2.204-5.61-4.801-7.146
			c-2.595-1.536-5.745-1.818-8.574-0.768c-2.782,1.034-68.904,25.844-136.121,72.082c-39.766,27.354-71.521,56.534-94.387,86.729
			C108,197.891,93.236,238.12,93.236,279.009c0,76.463,54.68,140.386,126.988,154.743c3.514,22.286,8.365,42.911,14.446,61.376
			c1.386,4.208,5.296,6.875,9.496,6.875c1.037,0,2.092-0.163,3.13-0.505c5.246-1.728,8.098-7.38,6.37-12.626
			c-5.216-15.841-9.483-33.437-12.73-52.427c3.33,0.211,6.684,0.33,10.066,0.33C337.994,436.775,408.767,366.002,408.767,279.009z
			 M113.236,279.009c0-83.096,70.305-148.972,129.282-189.603c38.688-26.653,77.728-46.242,103.223-57.823
			c-21.156,30.55-62.643,94.366-87.375,158.184c-1.996,5.15,0.562,10.942,5.711,12.938c1.188,0.46,2.409,0.678,3.611,0.678
			c4.008,0,7.791-2.427,9.326-6.389c24.864-64.158,68.587-130.209,88.079-158.132c7.592,54.999,23.673,178.758,23.673,240.146
			c0,75.964-61.802,137.766-137.766,137.766S113.236,354.973,113.236,279.009z"/>
	<path style="fill:#333333;" d="M258.727,275.372c0.126-8.283,1.126-17.392,2.974-27.074c1.034-5.425-2.524-10.662-7.949-11.697
			c-5.425-1.039-10.661,2.524-11.697,7.949c-2.063,10.814-3.182,21.082-3.325,30.518c-0.084,5.522,4.325,10.067,9.847,10.151
			c0.052,0,0.104,0.001,0.155,0.001C254.183,285.221,258.644,280.843,258.727,275.372z"/>
</svg>
