<svg xmlns="http://www.w3.org/2000/svg" width="27.5" height="27.5">
    <path fill-rule="evenodd" stroke="#777" fill="#FFF" d="M13.5.499c7.179 0 12.999 5.821 12.999 13.001 0 7.179-5.82 13-12.999 13-7.18 0-13-5.821-13-13C.5 6.32 6.32.499 13.5.499z"/>
    <path fill-rule="evenodd" fill="#666" d="m13.503 17.937-6.004-6.686h3.319V5.5h5.37v5.751h3.319l-6.004 6.686zM8.224 19.62h10.552c.334 0 .604-.278.604.068v1.186c0 .345-.27.626-.604.626H8.224a.615.615 0 0 1-.604-.626v-1.186c0-.346.27-.068.604-.068z"/>
</svg>
